<svg xmlns="http://www.w3.org/2000/svg" width="450" height="95" fill="none"><g clip-path="url(#a)"><path fill="#fff" d="M0 0h450v95H0z"/><path fill="#000" d="M31.67 78.56V46.52c0-11.16 7.177-18.84 18.782-18.84 12.92 0 16.03 8.28 16.03 20.04v30.84h6.341V46.52c0-14.76-4.904-24.72-21.294-24.72-11.007 0-16.75 3.72-19.62 11.16h-.12V23h-6.46v55.56h6.34Z"/><path fill="#fff" d="M109.283 79.64c16.749 0 25.243-9.6 25.243-29.16 0-19.08-9.691-28.08-25.243-28.08-15.553 0-25.243 8.88-25.243 28.08 0 19.56 8.494 29.16 25.243 29.16ZM90.38 50.36c0-15.12 6.341-22.08 18.903-22.08 12.561 0 18.902 7.08 18.902 22.08 0 15.6-5.982 23.28-19.022 23.28S90.38 65.96 90.38 50.36Z"/><path fill="#000" d="M150.015 29.12V62.6c0 10.2 4.905 17.28 16.749 17.28 3.111 0 9.212-.96 12.801-2.52l-.957-5.76c-3.589 1.44-8.733 2.16-11.126 2.16-8.255 0-11.126-3.84-11.126-11.28V29.12h20.936V23h-20.936V6.68h-6.341V23h-9.57v6.12h9.57ZM210.028 73.28c-8.973 0-12.203-4.32-12.203-10.32 0-4.92 3.35-10.2 14.237-10.2h15.074v4.92c0 11.52-8.973 15.6-17.108 15.6ZM191.485 63.2c0 10.56 6.819 15.84 17.825 15.84 6.7 0 14.954-3.24 17.706-8.88h.12v8.4h6.34V43.88c0-14.28-6.46-22.08-20.936-22.08-9.092 0-18.184 4.92-20.816 15.6l6.101 1.08c2.393-8.04 8.494-10.92 14.596-10.92 10.886 0 14.715 5.88 14.715 16.56v3.12h-15.553c-14.954 0-20.098 8.88-20.098 15.96ZM252.761 29.12V62.6c0 10.2 4.905 17.28 16.749 17.28 3.11 0 9.211-.96 12.8-2.52l-.957-5.76c-3.589 1.44-8.733 2.16-11.126 2.16-8.254 0-11.126-3.84-11.126-11.28V29.12h20.936V23h-20.936V6.68h-6.34V23h-9.571v6.12h9.571ZM294.948 12.56h7.537V5h-7.537v7.56Zm.598 66h6.341V23h-6.341v55.56ZM343.006 79.64c16.749 0 25.243-9.6 25.243-29.16 0-19.08-9.69-28.08-25.243-28.08-15.552 0-25.243 8.88-25.243 28.08 0 19.56 8.494 29.16 25.243 29.16Zm-18.902-29.28c0-15.12 6.341-22.08 18.902-22.08 12.562 0 18.902 7.08 18.902 22.08 0 15.6-5.981 23.28-19.021 23.28-13.041 0-18.783-7.68-18.783-23.28ZM388.342 78.56V46.52c0-11.16 7.178-18.84 18.783-18.84 12.92 0 16.031 8.28 16.031 20.04v30.84h6.34V46.52c0-14.76-4.905-24.72-21.295-24.72-11.006 0-16.748 3.72-19.62 11.16h-.119V23h-6.461v55.56h6.341Z"/><mask id="b" width="52" height="58" x="82" y="22" maskUnits="userSpaceOnUse" style="mask-type:alpha"><path fill="#fff" d="M107.996 79.24c16.749 0 25.243-9.6 25.243-29.16 0-19.08-9.69-28.08-25.243-28.08-15.552 0-25.243 8.88-25.243 28.08 0 19.56 8.494 29.16 25.243 29.16ZM89.094 49.96c0-15.12 6.34-22.08 18.902-22.08 12.562 0 18.902 7.08 18.902 22.08 0 15.6-5.981 23.28-19.022 23.28-13.04 0-18.782-7.68-18.782-23.28Z"/></mask><g stroke="#181B26" stroke-width="1.25" mask="url(#b)"><path d="m66.802 47.44 70.805-66.329M89.941 73.15l70.805-66.329M78.372 60.295l70.805-66.329M101.511 86.005l70.805-66.329M115.009 101.002l70.805-66.329M72.587 53.868l70.805-66.33M95.726 79.578l70.805-66.33M84.156 66.723 154.961.393M107.296 92.433l35.402-33.165 35.403-33.164M120.794 107.43l70.805-66.33M68.73 49.583l70.805-66.33M91.87 75.293l70.804-66.33M80.3 62.438l70.805-66.33M103.439 88.148l70.805-66.33M116.937 103.145l70.805-66.33M74.515 56.01l70.805-66.329M97.654 81.72l70.805-66.329M86.085 68.865l70.804-66.329M109.224 94.575l70.805-66.329M122.722 109.573l70.805-66.33M126.579 113.857l70.804-66.329M70.658 51.725l70.805-66.329M93.798 77.435l70.805-66.329M82.228 64.58l70.805-66.329M105.367 90.29l70.805-66.329M118.865 105.287l70.805-66.329M76.443 58.153l70.805-66.33M99.582 83.863l70.805-66.33M113.081 98.86l70.804-66.329M88.013 71.008l70.805-66.33M111.152 96.718l70.805-66.33M124.65 111.715l70.805-66.329M128.507 116l70.805-66.33"/></g><path fill="#000" d="M0 95V72h5.982v18h15.313v5H0ZM450 0v23h-6.34V5h-14.955V0H450Z"/></g><defs><clipPath id="a"><path fill="#fff" d="M0 0h450v95H0z"/></clipPath></defs></svg>